{"title":"Rahsaan Roland Kirk - Rahsaan: The Complete Mercury Recordings O","uid":6159190,"size":3551776411,"categoryP":"audio","categoryS":"flac","magnet":"?xt=urn:btih:3b8c6ca3a5068c546f07a7ef2d3443225f051d9a&amp;dn=Rahsaan+Roland+Kirk+-+Rahsaan%3A+The+Complete+Mercury+Recordings+O&amp;tr=udp%3A%2F%2Ftracker.openbittorrent.com%3A80&amp;tr=udp%3A%2F%2Fopen.demonii.com%3A1337&amp;tr=udp%3A%2F%2Ftracker.coppersurfer.tk%3A6969&amp;tr=udp%3A%2F%2Fexodus.desync.com%3A6969","seeders":5,"leechers":2,"uploader":null,"files":252,"time":1297150784,"description":"thanks balth67\n\neac secure cues logs complete scans\n\nRahsaan Roland Kirk - Rahsaan: The Complete Mercury Recordings Of Roland Kirk [1990]\n\n \n\n\nReview\tby Lindsay Planer\n\nRahsaan Roland Kirk\\'s nearly one-dozen long-players on the Mercury Records family of labels -- including the Smash and Limelight subsidiaries -- are gathered on this massive ten-disc compilation. Actually, it is 11 discs if you count the surprise bonus CD. Additionally, Rahsaan: The Complete Mercury Recordings of Roland Kirk lives up to its name by augmenting those albums with more than two-dozen previously unissued sides. Kirk\\'s thoroughly innovative multi-instrumental reed work caught the attention of legendary producer Quincy Jones, then the vice-president of Mercury Records, who signed Kirk and would later arrange and conduct orchestrations for several of his memorable sessions. Perhaps the most recognizable among them is \\&quot;Soul Bossa Nova\\&quot; which is heavily featured in the Austin Powers franchise. Kirk\\'s ability to perform several reed instruments -- including the tenor, flute, clarinet, manzello, and stritch -- simultaneously allowed him a musical autonomy few instrumentalists are afforded. His youthful embrace of the R&amp;B, soul, pop, and eventually rock genres produced swinging interpretations of \\&quot;And I Love Her\\&quot; and \\&quot;Walk on By,\\&quot; among others. Regardless of the genre, however, Kirk\\'s ability to Swing -- with a capitol \\&quot;S\\&quot; -- is imprinted upon every piece he performed. Although Kirk continued his prolific output on Atlantic records in the late \\'60s and \\'70s, arguably his most profound sides are included here. We Free Kings, Domino, Reeds and Deeds, Gifts and Messages, I Talk with the Spirits and Rip, Rig &amp; Panic are offered in their entirety. Undoubtedly the centerpiece of Kirk\\'s work for the label is the live Kirk in Copenhagen, which features some wicked harp blowing from blues legend \\&quot;Sonny Boy\\&quot; Williamson, aka Big Skol. It is only fitting that this album benefits so greatly from inclusion on this set. The original six sides have been supplemented with an additional ten to present the entire October \\'63 performance, now complete at an hour and 45 minutes. Rahsaan: The Complete Mercury Recordings if Roland Kirk is complimented visually with a 56-page information packed booklet that includes: complete discographical and recording session logs, as well individual essays for each disc. Although not for the light of funds, this is truly the best way to become immersed in these early works of Rahsaan Roland Kirk. \n\n\nTracklisting :\n\n1 Blues for Alice [alternate take] Parker 5:14\n2 Blues for Alice Parker 4:09\n3 My Delight Kirk 4:30\n4 The Haunted Melody Kirk 3:40\n5 A Sack Full of Soul Kirk 4:40\n6 We Free Kings Kirk 4:48\n7 Spring Will Be a Little Late This Year Loesser 4:08\n8 Moon Song Coslow, Johnston 4:23\n9 Some Kind of Love Kirk 6:12\n10 Three for the Festival Kirk 3:10\n11 You Did It, You Did It Kirk 2:27\n12 Get Out of Town Porter 4:53\n13 Rolando Kirk 3:49\n14 I Believe in You Loesser 4:29\n15 Where Monk and Mingus Live/Let\\'s Call This Kirk, Monk 4:10\n16 Domino Ferrari, Plante, Raye 4:07\n17 E.D. Kirk 2:25\n18 I Didn\\'t Know What Time It Was Hart, Rodgers 2:19\n19 Someone to Watch over Me Gershwin, Gershwin 3:45\n20 Termini\\'s Corner\nKirk 2:21\n21 When the Sun Comes Out\nArlen, Koehler 2:45\n22 Ad Lib (Hip Chops)\nKirk 0:27\n23 Stitt\\'s Tune Stitt 9:59\n24 I See With My Third \\&quot;I\\&quot; Kirk 9:33\n25 Medley: If I Had You/Alone Together/For Heaven\\'s Sake Cambell, Connelly, Dietz ... 7:32\nComposed by:\tCambell, Connelly, Dietz, Meyer, Schwartz, Shapiro\n26 Afternoon in Paris Lewis 5:52\n27 Lady \\&quot;E\\&quot; Kirk 3:20\n28 Meeting on Termini\\'s Corner Kirk 3:40\n29 Domino Ferrari, Plante, Raye 3:14\n30 Time Powell 3:13\n31 3-In-1 Without the Oil Kirk 2:35\n32 A Stritch in Time Kirk 5:06\n33 Lament Johnson 3:39\n34 A Breath in the Wind Kirk 5:09\n35 Land of Peace Feather 5:54\n36 Lonesome August Child Kirk 4:36\n37 Limbo Boat Kirk 3:02\n38 Hay Ro Kirk 3:04\n39 Waltz of the Friends Kirk 4:39\n40 This Is Always Gordon, Warren 4:20\n41 Reeds and Deeds Kirk 5:20\n42 Song of the Countrymen Kirk 6:56\n43 Ecclusiastics Mingus 4:30\n44 By Myself Dietz, Schwartz 4:23\n45 Roland Speaks Golson, Kirk 3:07\n46 A Nightingale Sang in Berkeley Square Maschwitz, Sherwin 5:16\n47 Variations on a Theme of Hindemith Kirk 3:30\n48 I\\'ve Got Your Number Coleman, Leigh 5:58\n49 Between the Fourth and the Fifth Step Kirk 3:43\n50 April Morning Kirk 3:45\n51 Get in the Basement Kirk 4:06\n52 Abstract Improvisation Kirk 1:58\n53 Narrow Bolero\nKirk 8:25\n54 Narrow Bolero Kirk 6:43\n55 My Heart Stood Still\nHart, Rodgers 5:50\n56 No Title, No. 1 5:56\n57 Mood Indigo\nBigard, Ellington, Mills 7:14\n58 Cabin in the Sky Duke, Latouche 7:47\n59 On the Corner of King and Scott Streets Kirk 4:41\n60 Untitled Blues\nKirk 6:17\n61 The Monkey Thing Kirk 5:56\n62 Will You Still Be Mine?\nAdair, Dennis 8:40\n63 One for My Baby (And One More for the Road)\nArlen, Mercer 3:54\n64 We\\'ll Be Together Again\nFischer, Laine 5:21\n65 Mingus-Griff Song Kirk 8:38\n66 Mood Indigo Bigard, Ellington, Mills 6:52\n67 Medley: Rock-A-Bye Baby/Nearness of You/No Title No. 3\nCarmichael, Washington 12:35\n68 Half a Triple\nKirk 4:53\n69 Japan\n3:05\n70 Japan\n3:10\n71 Japan\n3:08\n72 Berkshire Blues Weston 2:48\n73 Dirty Money Blues 3:44\n74 Dirty Money Blues\n3:45\n75 Ad Lib (Hip Chops)\nKirk 3:09\n76 The Things I Love Barlow, Harris 3:15\n77 Petite Fleur Bechet 3:13\n78 March on, Swan Lake Kirk 4:00\n79 Tears Sent by You Fleming 6:01\n80 My Heart at Thy Sweet Voice Saint-Saens 3:24\n81 Gifts and Messages Kirk 4:08\n82 Hip Chops Kirk 3:35\n83 Blues for C &amp; T Kirk 3:08\n84 Where Does the Blame Lie Kirk 2:52\n85 Vertigo Ro Kirk 4:08\n86 Jive Elephant\nKirk 2:55\n87 I Talk With the Spirits Kirk 3:57\n88 Serenade to a Cuckoo Kirk 4:35\n89 Medley: We\\'ll Be Together Again/People from \\&quot;Funny Girl\\&quot; Fisher, Laine, Merrill, Styne 4:42\n90 Ruined Castles Taki 1:19\n91 Trees Kirk 6:23\n92 Fugue\\'n and Alludin\\' Kirk 0:44\n93 Django Lewis 4:51\n94 My Ship Gershwin, Weill 5:06\n95 A Quote from Clifford Brown Kirk 4:26\n96 The Business Ain\\'t Nothin\\' But the Blues Kirk 5:02\n97 No Tonic Press Kirk 4:35\n98 From Bechet, Byas and Fats Kirk 6:32\n99 Slippery, Hippery, Flippery Kirk 4:58\n100 Black Diamond Sealey 5:24\n101 Rip, Rig and Panic Kirk 7:01\n102 Once in a While Edwards, Green 4:02\n103 Mystical Dream Kirk 2:40\n104 Walk on By Bacharach, David 2:35\n105 Juarez Kirk 5:28\n106 Shaky Money Kirk 2:40\n107 Ebrauqs Kirk 8:27\n108 Raouf Kirk 3:10\n109 Nothing But the Truth Kirk 3:39\n110 Safari Mathias 4:33\n111 It\\'s All in the Game Dawes, Sigman 5:24\n112 And I Love Her Lennon, McCartney 3:03\n113 A Taste of Honey Marlow, Scott 2:37\n114 Dyna-Soar\nKirk 2:38\n115 Soul Bossa Nova Jones 2:49\n116 Comin\\' Home Baby Dorough, Tucker 2:47\n117 Days of Wine and Roses Mancini, Mercer 2:48\n118 Moon River Mancini, Mercer 2:37\n119 Dreamsville Evans, Livingston, Mancini 3:53\n120 (I Love You and) Don\\'t You Forget It Mancini, Stillman 2:56\n121 Charade Mancini, Mercer 3:18\n122 Peter Gunn Theme Mancini 3:01\n123 I Had a Ball Freeman, Lawrence 5:06\n124 Addie\\'s at It Again Freeman, Lawrence 5:05\n125 A Stritch in Time Kirk 7:05\n\n\nCredits\n\nPepper Adams Sax (Baritone)\nNat Adderley Trumpet\nMiss C.J. Albert Vocals\nRay Alonge French Horn\nEddie Baccus Organ\nMartin Banks Flugelhorn\nVincent Bell Guitar\nJohn Bello Trumpet\nWalter Bishop, Jr. Piano\nArt Blakey Drums\nGarnett Brown Trombone\nPatricia Brown Organ, Piano\nSonny Brown Drums, Harp\nJames Buffington French Horn\nKenny Burrell Guitar\nGary Burton Vibraphone\nDon Butterfield Tuba\nJaki Byard Piano\nBilly Byers Trombone, Arranger\nEarl Chapin French Horn\nJimmy Cleveland Trombone\nAl Cohn Reeds\nRudy Collins Drums\nGeorge Cook Drums\nBill Costa Percussion\nBob Cranshaw Bass\nCharles Crosby Drums\nArt Davis Bass\nRichard Davis Bass\nJack del Rio Percussion\nAl DeRisi Trumpet\nGeorge Devens Percussion\nHenry Duncan Drums\nGeorge Duvivier Bass\nSteve Ellington Drums\nPaul Faulise Trombone\nMichael Fleming Bass\nCurtis Fuller Trombone\nDizzy Gillespie Trumpet\nBenny Golson Arranger, Sax (Tenor)\nCarlos GomÃƒÆ’Ã‚Â©z Percussion\nUrbie Green Trombone\nCharles Greenlea Trombone\nMartin Groupp Percussion\nJim Hall Guitar\nLouis Hayes Drums\nTubby Hayes Sax (Tenor), Vibraphone\nRoy Haynes Drums\nAlbert \\&quot;Tootie\\&quot; Heath Drums\nSam Herman Guitar\nAndrew Hill Celeste\nMilt Hinton Bass\nDick Hixon Trombone\nMajor Holley Bass\nFreddie Hubbard Trumpet\nPaul Ingraham French Horn\nMilt Jackson Vibraphone\nQuentin Jackson Trombone\nBudd Johnson Reeds\nJ.J. Johnson Trombone\nJames Johnson Tympani [Timpani]\nOsie Johnson Drums\nElvin Jones Drums\nHank Jones Piano\nQuincy Jones Arranger, Conductor\nSam Jones Bass\nVirgil Jones Trumpet\nWynton Kelly Piano\nRahsaan Roland Kirk Flute, Reeds, Castanets, Oboe, Saxophone, Sax (Baritone), Sax (Tenor), Stritch, Chant, Manzello, Nose Flute, Siren, African Flute\nFred Klein French Horn\nKiyoshi \\&quot;Boxman\\&quot; Koyama Compilation, Research\nPhil Kraus Percussion\nWalter Levinsky Reeds\nMelba Liston Trombone\nMundell Lowe Guitar\nHarold Mabern Piano\nWendell Marshall Bass\nVernon Martin Bass\nEddie Mathias Bass\nJimmy Maxwell Trumpet\nJay McAllister Tuba\nCharlie McCoy Harmonica\nTom McIntosh Trombone\nTony Miranda French Horn\nTommy Mitchell Trombone\nTete Montoliu Piano\nJames Moody Flute, Reeds, Sax (Alto), Sax (Tenor)\nDon Moore Bass\nBobby Moses Vibraphone\nJ.C. Moses Drums\nJoe Newman Trumpet\nBob Northern French Horn\nJimmy Nottingham Trumpet\nHorace Parlan Piano, Celeste\nJose Paula Percussion\nNiels-Henning ÃƒÆ’Ã‹Å“rsted Pedersen Bass\nRomeo Penque Reeds\nWalter Perkins Drums\nColeridge-Taylor Perkinson Director\nCharlie Persip Drums\nHarvey Phillips Tuba\nSeldon Powell Reeds\nAbdullah Rafik Bass\nManuel Ramos Percussion\nJerome Richardson Reeds, Saxophone\nMargaret Ross Harp\nErnie Royal Trumpet\nWillie Ruff French Horn\nSanto Russo Trombone\nLalo Schifrin Organ, Piano\nBobby Scott Organ, Piano\nEd Shaughnessy Drums\nZoot Sims Reeds\nBill Stanley Tuba\nChuck Stewart Photography, Cover Design\nTony Studd Trombone\nClark Terry Trumpet\nLucky Thompson Sax (Tenor)\nKiyoshi Tokiwa Editing, Digital Transfers, Remastering\nBen Tucker Bass\nJulius Watkins French Horn\nStanley Webb Reeds, Saxophone\nFrank Wess Reeds\nChris White Bass\nRichard Gene Williams Trumpet\nSonny Boy Williamson Harmonica\nKai Winding Trombone\nPhil Woods Reeds, Sax (Alto)\nWayne Wright Guitar\nRichard Wyands Piano\nSnooky Young Trumpet\n\nExact Audio Copy V0.99 prebeta 3 from 28. July 2007\n\nEAC extraction logfile from 4. January 2008, 18:04\n\nRoland Kirk / Rahsaan--Complete Mercury Recordings\n\nUsed drive : TSSTcorpDVD+-RW TS-H553A Adapter: 0 ID: 2\n\nRead mode : Secure\nUtilize accurate stream : Yes\nDefeat audio cache : Yes\nMake use of C2 pointers : No\n\nRead offset correction : 6\nOverread into Lead-In and Lead-Out : No\nFill up missing offset samples with silence : Yes\nDelete leading and trailing silent blocks : No\nNull samples used in CRC calculations : Yes\nUsed interface : Native Win32 interface for Win NT &amp; 2000\nGap handling : Appended to previous track\n\nUsed output format : User Defined Encoder\nSelected bitrate : 768 kBit/s\nQuality : High\nAdd ID3 tag : No\nCommand line compressor : C:\\\\Program Files\\\\Exact Audio Copy\\\\FLAC\\\\FLAC.EXE\nAdditional command line options : -6 -V -T \\&quot;ARTIST=%a\\&quot; -T \\&quot;TITLE=%t\\&quot; -T \\&quot;ALBUM=%g\\&quot; -T \\&quot;DATE=%y\\&quot; -T \\&quot;TRACKNUMBER=%n\\&quot; -T \\&quot;GENRE=%m\\&quot; -T \\&quot;COMMENT=%e\\&quot; %s -o %d\n\n\nTOC of the extracted CD\n\nTrack | Start | Length | Start sector | End sector \n---------------------------------------------------------\n1 | 0:00.33 | 5:14.00 | 33 | 23582 \n2 | 5:14.33 | 4:09.00 | 23583 | 42257 \n3 | 9:23.33 | 4:30.00 | 42258 | 62507 \n4 | 13:53.33 | 3:40.00 | 62508 | 79007 \n5 | 17:33.33 | 4:40.00 | 79008 | 100007 \n6 | 22:13.33 | 4:48.00 | 100008 | 121607 \n7 | 27:01.33 | 4:08.00 | 121608 | 140207 \n8 | 31:09.33 | 4:23.00 | 140208 | 159932 \n9 | 35:32.33 | 6:12.00 | 159933 | 187832 \n10 | 41:44.33 | 3:10.00 | 187833 | 202082 \n11 | 44:54.33 | 2:27.25 | 202083 | 213132 \n\n\nTrack 1\n\nFilename K:\\\\New Rips\\\\Roland Kirk - Rahsaan--Complete Mercury Recordings (1961) [FLAC]\\\\disc 1\\\\01 - Blues For Alice (alt tk).wav\n\nPre-gap length 0:00:02.44\n\nPeak level 97.3 %\nTrack quality 100.0 %\nTest CRC 99508458\nCopy CRC 99508458\nTrack not present in AccurateRip database\nCopy OK\n\nTrack 2\n\nFilename K:\\\\New Rips\\\\Roland Kirk - Rahsaan--Complete Mercury Recordings (1961) [FLAC]\\\\disc 1\\\\02 - Blues For Alice.wav\n\nPre-gap length 0:00:02.33\n\nPeak level 91.4 %\nTrack quality 100.0 %\nTest CRC DC6D8553\nCopy CRC DC6D8553\nTrack not present in AccurateRip database\nCopy OK\n\nTrack 3\n\nFilename K:\\\\New Rips\\\\Roland Kirk - Rahsaan--Complete Mercury Recordings (1961) [FLAC]\\\\disc 1\\\\03 - My Delight.wav\n\nPre-gap length 0:00:01.84\n\nPeak level 63.9 %\nTrack quality 100.0 %\nTest CRC A8DF6A92\nCopy CRC A8DF6A92\nTrack not present in AccurateRip database\nCopy OK\n\nTrack 4\n\nFilename K:\\\\New Rips\\\\Roland Kirk - Rahsaan--Complete Mercury Recordings (1961) [FLAC]\\\\disc 1\\\\04 - The Haunted Melody.wav\n\nPre-gap length 0:00:01.17\n\nPeak level 62.6 %\nTrack quality 100.0 %\nTest CRC ECC6E4A7\nCopy CRC ECC6E4A7\nTrack not present in AccurateRip database\nCopy OK\n\nTrack 5\n\nFilename K:\\\\New Rips\\\\Roland Kirk - Rahsaan--Complete Mercury Recordings (1961) [FLAC]\\\\disc 1\\\\05 - A Sack Full Of Soul.wav\n\nPre-gap length 0:00:02.66\n\nPeak level 74.9 %\nTrack quality 100.0 %\nTest CRC F8D3ACB2\nCopy CRC F8D3ACB2\nTrack not present in AccurateRip database\nCopy OK\n\nTrack 6\n\nFilename K:\\\\New Rips\\\\Roland Kirk - Rahsaan--Complete Mercury Recordings (1961) [FLAC]\\\\disc 1\\\\06 - We Free Kings.wav\n\nPre-gap length 0:00:02.33\n\nPeak level 76.8 %\nTrack quality 100.0 %\nTest CRC 3E63DE02\nCopy CRC 3E63DE02\nTrack not present in AccurateRip database\nCopy OK\n\nTrack 7\n\nFilename K:\\\\New Rips\\\\Roland Kirk - Rahsaan--Complete Mercury Recordings (1961) [FLAC]\\\\disc 1\\\\07 - Spring Will Be A Little Late This Year.wav\n\nPre-gap length 0:00:01.84\n\nPeak level 75.9 %\nTrack quality 100.0 %\nTest CRC 47F785A9\nCopy CRC 47F785A9\nTrack not present in AccurateRip database\nCopy OK\n\nTrack 8\n\nFilename K:\\\\New Rips\\\\Roland Kirk - Rahsaan--Complete Mercury Recordings (1961) [FLAC]\\\\disc 1\\\\08 - Moon Song.wav\n\nPre-gap length 0:00:01.84\n\nPeak level 80.3 %\nTrack quality 99.9 %\nTest CRC CC8D7869\nCopy CRC CC8D7869\nTrack not present in AccurateRip database\nCopy OK\n\nTrack 9\n\nFilename K:\\\\New Rips\\\\Roland Kirk - Rahsaan--Complete Mercury Recordings (1961) [FLAC]\\\\disc 1\\\\09 - Some Kind Of Love.wav\n\nPre-gap length 0:00:01.84\n\nPeak level 91.4 %\nTrack quality 100.0 %\nTest CRC C9BBD94F\nCopy CRC C9BBD94F\nTrack not present in AccurateRip database\nCopy OK\n\nTrack 10\n\nFilename K:\\\\New Rips\\\\Roland Kirk - Rahsaan--Complete Mercury Recordings (1961) [FLAC]\\\\disc 1\\\\10 - Three For The Festival.wav\n\nPre-gap length 0:00:01.84\n\nPeak level 77.1 %\nTrack quality 100.0 %\nTest CRC 45A3CB84\nCopy CRC 45A3CB84\nTrack not present in AccurateRip database\nCopy OK\n\nTrack 11\n\nFilename K:\\\\New Rips\\\\Roland Kirk - Rahsaan--Complete Mercury Recordings (1961) [FLAC]\\\\disc 1\\\\11 - You Did It, You Did It.wav\n\nPre-gap length 0:00:01.66\n\nPeak level 69.6 %\nTrack quality 100.0 %\nTest CRC 8504872A\nCopy CRC 8504872A\nTrack not present in AccurateRip database\nCopy OK\n\n\nNone of the tracks are present in the AccurateRip database\n\nNo errors occurred\n\nEnd of status report\n\n------------------------------------------------------------\n\nExact Audio Copy V0.99 prebeta 3 from 28. July 2007\n\nEAC extraction logfile from 4. January 2008, 20:33\n\nRoland Kirk / Rahsaan--Complete Mercury Recordings\n\nUsed drive : TSSTcorpDVD+-RW TS-H553A Adapter: 0 ID: 2\n\nRead mode : Secure\nUtilize accurate stream : Yes\nDefeat audio cache : Yes\nMake use of C2 pointers : No\n\nRead offset correction : 6\nOverread into Lead-In and Lead-Out : No\nFill up missing offset samples with silence : Yes\nDelete leading and trailing silent blocks : No\nNull samples used in CRC calculations : Yes\nUsed interface : Native Win32 interface for Win NT &amp; 2000\nGap handling : Appended to previous track\n\nUsed output format : User Defined Encoder\nSelected bitrate : 768 kBit/s\nQuality : High\nAdd ID3 tag : No\nCommand line compressor : C:\\\\Program Files\\\\Exact Audio Copy\\\\FLAC\\\\FLAC.EXE\nAdditional command line options : -6 -V -T \\&quot;ARTIST=%a\\&quot; -T \\&quot;TITLE=%t\\&quot; -T \\&quot;ALBUM=%g\\&quot; -T \\&quot;DATE=%y\\&quot; -T \\&quot;TRACKNUMBER=%n\\&quot; -T \\&quot;GENRE=%m\\&quot; -T \\&quot;COMMENT=%e\\&quot; %s -o %d\n\n\nTOC of the extracted CD\n\nTrack | Start | Length | Start sector | End sector \n---------------------------------------------------------\n1 | 0:00.33 | 4:53.00 | 33 | 22007 \n2 | 4:53.33 | 3:49.00 | 22008 | 39182 \n3 | 8:42.33 | 4:29.00 | 39183 | 59357 \n4 | 13:11.33 | 4:10.00 | 59358 | 78107 \n5 | 17:21.33 | 4:07.00 | 78108 | 96632 \n6 | 21:28.33 | 2:25.00 | 96633 | 107507 \n7 | 23:53.33 | 2:19.00 | 107508 | 117932 \n8 | 26:12.33 | 3:45.00 | 117933 | 134807 \n9 | 29:57.33 | 2:21.00 | 134808 | 145382 \n10 | 32:18.33 | 2:45.00 | 145383 | 157757 \n11 | 35:03.33 | 0:27.00 | 157758 | 159782 \n12 | 35:30.33 | 9:59.00 | 159783 | 204707 \n13 | 45:29.33 | 9:33.00 | 204708 | 247682 \n14 | 55:02.33 | 7:32.00 | 247683 | 281582 \n15 | 62:34.33 | 5:52.00 | 281583 | 307982 \n16 | 68:26.33 | 3:20.12 | 307983 | 322994 \n\n\nTrack 1\n\nFilename K:\\\\New Rips\\\\Roland Kirk - Rahsaan--Complete Mercury Recordings (1961) [FLAC]\\\\disc 2\\\\01 - Get Out Of Town.wav\n\nPre-gap length 0:00:02.44\n\nPeak level 70.8 %\nTrack quality 100.0 %\nTest CRC 09852093\nCopy CRC 09852093\nTrack not present in AccurateRip database\nCopy OK\n\nTrack 2\n\nFilename K:\\\\New Rips\\\\Roland Kirk - Rahsaan--Complete Mercury Recordings (1961) [FLAC]\\\\disc 2\\\\02 - Rolando.wav\n\nPre-gap length 0:00:02.50\n\nPeak level 80.8 %\nTrack quality 100.0 %\nTest CRC 10084579\nCopy CRC 10084579\nTrack not present in AccurateRip database\nCopy OK\n\nTrack 3\n\nFilename K:\\\\New Rips\\\\Roland Kirk - Rahsaan--Complete Mercury Recordings (1961) [FLAC]\\\\disc 2\\\\03 - I Believe In You.wav\n\nPre-gap length 0:00:02.33\n\nPeak level 73.5 %\nTrack quality 100.0 %\nTest CRC 2ADCB84F\nCopy CRC 2ADCB84F\nTrack not present in AccurateRip database\nCopy OK\n\nTrack 4\n\nFilename K:\\\\New Rips\\\\Roland Kirk - Rahsaan--Complete Mercury Recordings (1961) [FLAC]\\\\disc 2\\\\04 - Where Monk And Mingus Live,Let\\'s Call This.wav\n\nPre-gap length 0:00:01.84\n\nPeak level 74.5 %\nTrack quality 100.0 %\nTest CRC 5DE97D27\nCopy CRC 5DE97D27\nTrack not present in AccurateRip database\nCopy OK\n\nTrack 5\n\nFilename K:\\\\New Rips\\\\Roland Kirk - Rahsaan--Complete Mercury Recordings (1961) [FLAC]\\\\disc 2\\\\05 - Domino.wav\n\nPre-gap length 0:00:02.33\n\nPeak level 79.8 %\nTrack quality 100.0 %\nTest CRC 70E4CEA8\nCopy CRC 70E4CEA8\nTrack not present in AccurateRip database\nCopy OK\n\nTrack 6\n\nFilename K:\\\\New Rips\\\\Roland Kirk - Rahsaan--Complete Mercury Recordings (1961) [FLAC]\\\\disc 2\\\\06 - E.D..wav\n\nPre-gap length 0:00:01.84\n\nPeak level 89.5 %\nTrack quality 100.0 %\nTest CRC 1968179C\nCopy CRC 1968179C\nTrack not present in AccurateRip database\nCopy OK\n\nTrack 7\n\nFilename K:\\\\New Rips\\\\Roland Kirk - Rahsaan--Complete Mercury Recordings (1961) [FLAC]\\\\disc 2\\\\07 - I Didn\\'t Know What Time It Was.wav\n\nPre-gap length 0:00:01.84\n\nPeak level 89.8 %\nTrack quality 100.0 %\nTest CRC 4E821066\nCopy CRC 4E821066\nTrack not present in AccurateRip database\nCopy OK\n\nTrack 8\n\nFilename K:\\\\New Rips\\\\Roland Kirk - Rahsaan--Complete Mercury Recordings (1961) [FLAC]\\\\disc 2\\\\08 - Someone To Watch Over Me.wav\n\nPre-gap length 0:00:02.00\n\nPeak level 77.6 %\nTrack quality 100.0 %\nTest CRC DE004E67\nCopy CRC DE004E67\nTrack not present in AccurateRip database\nCopy OK\n\nTrack 9\n\nFilename K:\\\\New Rips\\\\Roland Kirk - Rahsaan--Complete Mercury Recordings (1961) [FLAC]\\\\disc 2\\\\09 - Termini\\'s Corner.wav\n\nPre-gap length 0:00:02.17\n\nPeak level 95.1 %\nTrack quality 100.0 %\nTest CRC 2D492CCA\nCopy CRC 2D492CCA\nTrack not present in AccurateRip database\nCopy OK\n\nTrack 10\n\nFilename K:\\\\New Rips\\\\Roland Kirk - Rahsaan--Complete Mercury Recordings (1961) [FLAC]\\\\disc 2\\\\10 - When The Sun Comes Out.wav\n\nPre-gap length 0:00:02.00\n\nPeak level 100.0 %\nTrack quality 100.0 %\nTest CRC 90628993\nCopy CRC 90628993\nTrack not present in AccurateRip database\nCopy OK\n\nTrack 11\n\nFilename K:\\\\New Rips\\\\Roland Kirk - Rahsaan--Complete Mercury Recordings (1961) [FLAC]\\\\disc 2\\\\11 - Ad Lib.wav\n\nPre-gap length 0:00:02.17\n\nPeak level 86.5 %\nTrack quality 100.0 %\nTest CRC 04269515\nCopy CRC 04269515\nTrack not present in AccurateRip database\nCopy OK\n\nTrack 12\n\nFilename K:\\\\New Rips\\\\Roland Kirk - Rahsaan--Complete Mercury Recordings (1961) [FLAC]\\\\disc 2\\\\12 - Stitt\\'s Tune.wav\n\nPre-gap length 0:00:03.33\n\nPeak level 85.8 %\nTrack quality 100.0 %\nTest CRC 2BE7121C\nCopy CRC 2BE7121C\nTrack not present in AccurateRip database\nCopy OK\n\nTrack 13\n\nFilename K:\\\\New Rips\\\\Roland Kirk - Rahsaan--Complete Mercury Recordings (1961) [FLAC]\\\\disc 2\\\\13 - I See With My Third \\'I\\'.wav\n\nPre-gap length 0:00:02.33\n\nPeak level 100.0 %\nTrack quality 100.0 %\nTest CRC 8E8C71FE\nCopy CRC 8E8C71FE\nTrack not present in AccurateRip database\nCopy OK\n\nTrack 14\n\nFilename K:\\\\New Rips\\\\Roland Kirk - Rahsaan--Complete Mercury Recordings (1961) [FLAC]\\\\disc 2\\\\14 - Medley- If I Had You,Alone Together,For Heaven\\'s Sake.wav\n\nPre-gap length 0:00:01.84\n\nPeak level 78.0 %\nTrack quality 100.0 %\nTest CRC 3630BB89\nCopy CRC 3630BB89\nTrack not present in AccurateRip database\nCopy OK\n\nTrack 15\n\nFilename K:\\\\New Rips\\\\Roland Kirk - Rahsaan--Complete Mercury Recordings (1961) [FLAC]\\\\disc 2\\\\15 - Afternoon in Paris.wav\n\nPre-gap length 0:00:02.50\n\nPeak level 72.2 %\nTrack quality 99.9 %\nTest CRC DA7C96EA\nCopy CRC DA7C96EA\nTrack not present in AccurateRip database\nCopy OK\n\nTrack 16\n\nFilename K:\\\\New Rips\\\\Roland Kirk - Rahsaan--Complete Mercury Recordings (1961) [FLAC]\\\\disc 2\\\\16 - Lady \\'E\\'.wav\n\nPre-gap length 0:00:02.50\n\nPeak level 82.6 %\nTrack quality 100.0 %\nTest CRC 8AFDD502\nCopy CRC 8AFDD502\nTrack not present in AccurateRip database\nCopy OK\n\n\nNone of the tracks are present in the AccurateRip database\n\nNo errors occurred\n\nEnd of status report\n\n------------------------------------------------------------\n\nExact Audio Copy V0.99 prebeta 3 from 28. July 2007\n\nEAC extraction logfile from 5. January 2008, 10:40\n\nRoland Kirk / Rahsaan--Complete Mercury Recordings\n\nUsed drive : TSSTcorpDVD+-RW TS-H553A Adapter: 0 ID: 2\n\nRead mode : Secure\nUtilize accurate stream : Yes\nDefeat audio cache : Yes\nMake use of C2 pointers : No\n\nRead offset correction : 6\nOverread into Lead-In and Lead-Out : No\nFill up missing offset samples with silence : Yes\nDelete leading and trailing silent blocks : No\nNull samples used in CRC calculations : Yes\nUsed interface : Native Win32 interface for Win NT &amp; 2000\nGap handling : Appended to previous track\n\nUsed output format : User Defined Encoder\nSelected bitrate : 768 kBit/s\nQuality : High\nAdd ID3 tag : No\nCommand line compressor : C:\\\\Program Files\\\\Exact Audio Copy\\\\FLAC\\\\FLAC.EXE\nAdditional command line options : -6 -V -T \\&quot;ARTIST=%a\\&quot; -T \\&quot;TITLE=%t\\&quot; -T \\&quot;ALBUM=%g\\&quot; -T \\&quot;DATE=%y\\&quot; -T \\&quot;TRACKNUMBER=%n\\&quot; -T \\&quot;GENRE=%m\\&quot; -T \\&quot;COMMENT=%e\\&quot; %s -o %d\n\n\nTOC of the extracted CD\n\nTrack | Start | Length | Start sector | End sector \n---------------------------------------------------------\n1 | 0:00.33 | 3:40.62 | 33 | 16594 \n2 | 3:41.20 | 3:14.00 | 16595 | 31144 \n3 | 6:55.20 | 3:13.13 | 31145 | 45632 \n4 | 10:08.33 | 2:35.00 | 45633 | 57257 \n5 | 12:43.33 | 5:06.00 | 57258 | 80207 \n6 | 17:49.33 | 3:39.62 | 80208 | 96694 \n7 | 21:29.20 | 5:09.13 | 96695 | 119882 \n8 | 26:38.33 | 5:54.00 | 119883 | 146432 \n9 | 32:32.33 | 4:36.00 | 146433 | 167132 \n10 | 37:08.33 | 3:02.00 | 167133 | 180782 \n11 | 40:10.33 | 3:04.00 | 180783 | 194582 \n12 | 43:14.33 | 4:40.00 | 194583 | 215582 \n\n\nTrack 1\n\nFilename K:\\\\New Rips\\\\Roland Kirk - Rahsaan--Complete Mercury Recordings (1961) [FLAC]\\\\disc 3\\\\01 - Meeting On Termini\\'s Corner.wav\n\nPre-gap length 0:00:02.44\n\nPeak level 80.6 %\nTrack quality 99.9 %\nTest CRC F6D9CB5F\nCopy CRC F6D9CB5F\nTrack not present in AccurateRip database\nCopy OK\n\nTrack 2\n\nFilename K:\\\\New Rips\\\\Roland Kirk - Rahsaan--Complete Mercury Recordings (1961) [FLAC]\\\\disc 3\\\\02 - Domino.wav\n\nPre-gap length 0:00:01.82\n\nPeak level 64.1 %\nTrack quality 100.0 %\nTest CRC 0A6E00AB\nCopy CRC 0A6E00AB\nTrack not present in AccurateRip database\nCopy OK\n\nTrack 3\n\nFilename K:\\\\New Rips\\\\Roland Kirk - Rahsaan--Complete Mercury Recordings (1961) [FLAC]\\\\disc 3\\\\03 - Time.wav\n\nPre-gap length 0:00:01.82\n\nPeak level 45.7 %\nTrack quality 100.0 %\nTest CRC DA95EB28\nCopy CRC DA95EB28\nTrack not present in AccurateRip database\nCopy OK\n\nTrack 4\n\nFilename K:\\\\New Rips\\\\Roland Kirk - Rahsaan--Complete Mercury Recordings (1961) [FLAC]\\\\disc 3\\\\04 - 3-In-1 Without The Oil.wav\n\nPre-gap length 0:00:01.84\n\nPeak level 79.0 %\nTrack quality 100.0 %\nTest CRC DA792169\nCopy CRC DA792169\nTrack not present in AccurateRip database\nCopy OK\n\nTrack 5\n\nFilename K:\\\\New Rips\\\\Roland Kirk - Rahsaan--Complete Mercury Recordings (1961) [FLAC]\\\\disc 3\\\\05 - A Stritch In Time.wav\n\nPre-gap length 0:00:02.84\n\nPeak level 62.6 %\nTrack quality 99.9 %\nTest CRC 8D98C7F0\nCopy CRC 8D98C7F0\nTrack not present in AccurateRip database\nCopy OK\n\nTrack 6\n\nFilename K:\\\\New Rips\\\\Roland Kirk - Rahsaan--Complete Mercury Recordings (1961) [FLAC]\\\\disc 3\\\\06 - Lament.wav\n\nPre-gap length 0:00:02.00\n\nPeak level 90.8 %\nTrack quality 99.9 %\nTest CRC B6BB28EA\nCopy CRC B6BB28EA\nTrack not present in AccurateRip database\nCopy OK\n\nTrack 7\n\nFilename K:\\\\New Rips\\\\Roland Kirk - Rahsaan--Complete Mercury Recordings (1961) [FLAC]\\\\disc 3\\\\07 - A Breath In The Wind.wav\n\nPre-gap length 0:00:01.49\n\nPeak level 78.1 %\nTrack quality 100.0 %\nTest CRC F101F0C2\nCopy CRC F101F0C2\nTrack not present in AccurateRip database\nCopy OK\n\nTrack 8\n\nFilename K:\\\\New Rips\\\\Roland Kirk - Rahsaan--Complete Mercury Recordings (1961) [FLAC]\\\\disc 3\\\\08 - Land Of Peace.wav\n\nPre-gap length 0:00:01.84\n\nPeak level 93.3 %\nTrack quality 99.9 %\nTest CRC 472B1F35\nCopy CRC 472B1F35\nTrack not present in AccurateRip database\nCopy OK\n\nTrack 9\n\nFilename K:\\\\New Rips\\\\Roland Kirk - Rahsaan--Complete Mercury Recordings (1961) [FLAC]\\\\disc 3\\\\09 - Lonesome August Child.wav\n\nPre-gap length 0:00:01.84\n\nPeak level 79.1 %\nTrack quality 99.9 %\nTest CRC 53011D5D\nCopy CRC 53011D5D\nTrack not present in AccurateRip database\nCopy OK\n\nTrack 10\n\nFilename K:\\\\New Rips\\\\Roland Kirk - Rahsaan--Complete Mercury Recordings (1961) [FLAC]\\\\disc 3\\\\10 - Limbo Boat.wav\n\nPre-gap length 0:00:02.50\n\nPeak level 83.2 %\nTrack quality 100.0 %\nTest CRC 6ACF618B\nCopy CRC 6ACF618B\nTrack not present in AccurateRip database\nCopy OK\n\nTrack 11\n\nFilename K:\\\\New Rips\\\\Roland Kirk - Rahsaan--Complete Mercury Recordings (1961) [FLAC]\\\\disc 3\\\\11 - Hay Ro.wav\n\nPre-gap length 0:00:02.00\n\nPeak level 96.7 %\nTrack quality 100.0 %\nTest CRC 1C559AE3\nCopy CRC 1C559AE3\nTrack not present in AccurateRip database\nCopy OK\n\nTrack 12\n\nFilename K:\\\\New Rips\\\\Roland Kirk - Rahsaan--Complete Mercury Recordings (1961) [FLAC]\\\\disc 3\\\\12 - Waltz Of The Friends.wav\n\nPre-gap length 0:00:01.66\n\nPeak level 84.0 %\nTrack quality 100.0 %\nTest CRC 24D53AF0\nCopy CRC 24D53AF0\nTrack not present in AccurateRip database\nCopy OK\n\n\nNone of the tracks are present in the AccurateRip database\n\nNo errors occurred\n\nEnd of status report\n\n------------------------------------------------------------\n\nExact Audio Copy V0.99 prebeta 3 from 28. July 2007\n\nEAC extraction logfile from 3. January 2008, 23:20\n\nRoland Kirk / Rahsaan--Complete Mercury Recordings\n\nUsed drive : TSSTcorpDVD+-RW TS-H553A Adapter: 0 ID: 2\n\nRead mode : Secure\nUtilize accurate stream : Yes\nDefeat audio cache : Yes\nMake use of C2 pointers : No\n\nRead offset correction : 6\nOverread into Lead-In and Lead-Out : No\nFill up missing offset samples with silence : Yes\nDelete leading and trailing silent blocks : No\nNull samples used in CRC calculations : Yes\nUsed interface : Native Win32 interface for Win NT &amp; 2000\nGap handling : Appended to previous track\n\nUsed output format : User Defined Encoder\nSelected bitrate : 768 kBit/s\nQuality : High\nAdd ID3 tag : No\nCommand line compressor : C:\\\\Program Files\\\\Exact Audio Copy\\\\FLAC\\\\FLAC.EXE\nAdditional command line options : -6 -V -T \\&quot;ARTIST=%a\\&quot; -T \\&quot;TITLE=%t\\&quot; -T \\&quot;ALBUM=%g\\&quot; -T \\&quot;DATE=%y\\&quot; -T \\&quot;TRACKNUMBER=%n\\&quot; -T \\&quot;GENRE=%m\\&quot; -T \\&quot;COMMENT=%e\\&quot; %s -o %d\n\n\nTOC of the extracted CD\n\nTrack | Start | Length | Start sector | End sector \n---------------------------------------------------------\n1 | 0:00.33 | 4:20.00 | 33 | 19532 \n2 | 4:20.33 | 5:20.00 | 19533 | 43532 \n3 | 9:40.33 | 6:56.00 | 43533 | 74732 \n4 | 16:36.33 | 4:30.00 | 74733 | 94982 \n5 | 21:06.33 | 4:23.00 | 94983 | 114707 \n6 | 25:29.33 | 3:07.00 | 114708 | 128732 \n7 | 28:36.33 | 5:16.00 | 128733 | 152432 \n8 | 33:52.33 | 3:30.00 | 152433 | 168182 \n9 | 37:22.33 | 5:58.00 | 168183 | 195032 \n10 | 43:20.33 | 3:43.00 | 195033 | 211757 \n11 | 47:03.33 | 3:45.00 | 211758 | 228632 \n12 | 50:48.33 | 4:06.00 | 228633 | 247082 \n13 | 54:54.33 | 1:58.50 | 247083 | 255982 \n\n\nTrack 1\n\nFilename K:\\\\New Rips\\\\Roland Kirk - Rahsaan--Complete Mercury Recordings (1961) [FLAC]\\\\disc 4\\\\01 - This Is Always.wav\n\nPre-gap length 0:00:02.44\n\nPeak level 69.7 %\nTrack quality 99.9 %\nTest CRC 4354FE85\nCopy CRC 4354FE85\nTrack not present in AccurateRip database\nCopy OK\n\nTrack 2\n\nFilename K:\\\\New Rips\\\\Roland Kirk - Rahsaan--Complete Mercury Recordings (1961) [FLAC]\\\\disc 4\\\\02 - Reeds And Deeds.wav\n\nPre-gap length 0:00:02.50\n\nPeak level 100.0 %\nTrack quality 100.0 %\nTest CRC 0C14F1CF\nCopy CRC 0C14F1CF\nTrack not present in AccurateRip database\nCopy OK\n\nTrack 3\n\nFilename K:\\\\New Rips\\\\Roland Kirk - Rahsaan--Complete Mercury Recordings (1961) [FLAC]\\\\disc 4\\\\03 - Song Of The Countrymen.wav\n\nPre-gap length 0:00:01.84\n\nPeak level 88.5 %\nTrack quality 100.0 %\nTest CRC 915F99AE\nCopy CRC 915F99AE\nTrack not present in AccurateRip database\nCopy OK\n\nTrack 4\n\nFilename K:\\\\New Rips\\\\Roland Kirk - Rahsaan--Complete Mercury Recordings (1961) [FLAC]\\\\disc 4\\\\04 - Ecclusiastics.wav\n\nPre-gap length 0:00:01.84\n\nPeak level 100.0 %\nTrack quality 100.0 %\nTest CRC 690E08FF\nCopy CRC 690E08FF\nTrack not present in AccurateRip database\nCopy OK\n\nTrack 5\n\nFilename K:\\\\New Rips\\\\Roland Kirk - Rahsaan--Complete Mercury Recordings (1961) [FLAC]\\\\disc 4\\\\05 - By Myself.wav\n\nPre-gap length 0:00:02.17\n\nPeak level 85.7 %\nTrack quality 99.9 %\nTest CRC EAC4A68E\nCopy CRC EAC4A68E\nTrack not present in AccurateRip database\nCopy OK\n\nTrack 6\n\nFilename K:\\\\New Rips\\\\Roland Kirk - Rahsaan--Complete Mercury Recordings (1961) [FLAC]\\\\disc 4\\\\06 - Roland Speaks.wav\n\nPre-gap length 0:00:02.33\n\nPeak level 100.0 %\nTrack quality 100.0 %\nTest CRC 254D46E4\nCopy CRC 254D46E4\nTrack not present in AccurateRip database\nCopy OK\n\nTrack 7\n\nFilename K:\\\\New Rips\\\\Roland Kirk - Rahsaan--Complete Mercury Recordings (1961) [FLAC]\\\\disc 4\\\\07 - A Nightingale Sang In Berkeley Square.wav\n\nPre-gap length 0:00:02.84\n\nPeak level 96.6 %\nTrack quality 100.0 %\nTest CRC 75098857\nCopy CRC 75098857\nTrack not present in AccurateRip database\nCopy OK\n\nTrack 8\n\nFilename K:\\\\New Rips\\\\Roland Kirk - Rahsaan--Complete Mercury Recordings (1961) [FLAC]\\\\disc 4\\\\08 - Variations On A Theme Of Hindemith.wav\n\nPre-gap length 0:00:02.33\n\nPeak level 96.4 %\nTrack quality 100.0 %\nTest CRC FC5C32DE\nCopy CRC FC5C32DE\nTrack not present in AccurateRip database\nCopy OK\n\nTrack 9\n\nFilename K:\\\\New Rips\\\\Roland Kirk - Rahsaan--Complete Mercury Recordings (1961) [FLAC]\\\\disc 4\\\\09 - I\\'ve Got Your Number.wav\n\nPre-gap length 0:00:01.84\n\nPeak level 92.6 %\nTrack quality 100.0 %\nTest CRC 4C20C571\nCopy CRC 4C20C571\nTrack not present in AccurateRip database\nCopy OK\n\nTrack 10\n\nFilename K:\\\\New Rips\\\\Roland Kirk - Rahsaan--Complete Mercury Recordings (1961) [FLAC]\\\\disc 4\\\\10 - Between The Fourth And The Fifth Step.wav\n\nPre-gap length 0:00:02.66\n\nPeak level 100.0 %\nTrack quality 100.0 %\nTest CRC 76860E01\nCopy CRC 76860E01\nTrack not present in AccurateRip database\nCopy OK\n\nTrack 11\n\nFilename K:\\\\New Rips\\\\Roland Kirk - Rahsaan--Complete Mercury Recordings (1961) [FLAC]\\\\disc 4\\\\11 - April Morning.wav\n\nPre-gap length 0:00:01.33\n\nPeak level 78.6 %\nTrack quality 99.9 %\nTest CRC B216AA3F\nCopy CRC B216AA3F\nTrack not present in AccurateRip database\nCopy OK\n\nTrack 12\n\nFilename K:\\\\New Rips\\\\Roland Kirk - Rahsaan--Complete Mercury Recordings (1961) [FLAC]\\\\disc 4\\\\12 - Get In The Basement.wav\n\nPre-gap length 0:00:02.00\n\nPeak level 92.5 %\nTrack quality 100.0 %\nTest CRC E4E8F159\nCopy CRC E4E8F159\nTrack not present in AccurateRip database\nCopy OK\n\nTrack 13\n\nFilename K:\\\\New Rips\\\\Roland Kirk - Rahsaan--Complete Mercury Recordings (1961) [FLAC]\\\\disc 4\\\\13 - Abstract Improvisation.wav\n\nPre-gap length 0:00:02.50\n\nPeak level 68.0 %\nTrack quality 100.0 %\nTest CRC AA2F1439\nCopy CRC AA2F1439\nTrack not present in AccurateRip database\nCopy OK\n\n\nNone of the tracks are present in the AccurateRip database\n\nNo errors occurred\n\nEnd of status report\n\n------------------------------------------------------------\n\nExact Audio Copy V0.99 prebeta 3 from 28. July 2007\n\nEAC extraction logfile from 5. January 2008, 13:05\n\nRoland Kirk / Rahsaan--Complete Mercury Recordings\n\nUsed drive : TSSTcorpDVD+-RW TS-H553A Adapter: 0 ID: 2\n\nRead mode : Secure\nUtilize accurate stream : Yes\nDefeat audio cache : Yes\nMake use of C2 pointers : No\n\nRead offset correction : 6\nOverread into Lead-In and Lead-Out : No\nFill up missing offset samples with silence : Yes\nDelete leading and trailing silent blocks : No\nNull samples used in CRC calculations : Yes\nUsed interface : Native Win32 interface for Win NT &amp; 2000\nGap handling : Appended to previous track\n\nUsed output format : User Defined Encoder\nSelected bitrate : 768 kBit/s\nQuality : High\nAdd ID3 tag : No\nCommand line compressor : C:\\\\Program Files\\\\Exact Audio Copy\\\\FLAC\\\\FLAC.EXE\nAdditional command line options : -6 -V -T \\&quot;ARTIST=%a\\&quot; -T \\&quot;TITLE=%t\\&quot; -T \\&quot;ALBUM=%g\\&quot; -T \\&quot;DATE=%y\\&quot; -T \\&quot;TRACKNUMBER=%n\\&quot; -T \\&quot;GENRE=%m\\&quot; -T \\&quot;COMMENT=%e\\&quot; %s -o %d\n\n\nTOC of the extracted CD\n\nTrack | Start | Length | Start sector | End sector \n---------------------------------------------------------\n1 | 0:00.33 | 8:25.00 | 33 | 37907 \n2 | 8:25.33 | 6:43.37 | 37908 | 68169 \n3 | 15:08.70 | 5:50.38 | 68170 | 94457 \n4 | 20:59.33 | 5:56.62 | 94458 | 121219 \n5 | 26:56.20 | 7:14.63 | 121220 | 153832 \n6 | 34:11.08 | 7:47.00 | 153833 | 188857 \n7 | 41:58.08 | 4:41.12 | 188858 | 209944 \n8 | 46:39.20 | 6:17.50 | 209945 | 238269 \n\n\nTrack 1\n\nFilename K:\\\\New Rips\\\\Roland Kirk - Rahsaan--Complete Mercury Recordings (1961) [FLAC]\\\\disc 5\\\\01 - Narrow Bolero.wav\n\nPre-gap length 0:00:02.44\n\nPeak level 64.0 %\nTrack quality 100.0 %\nTest CRC 74A3C41F\nCopy CRC 74A3C41F\nTrack not present in AccurateRip database\nCopy OK\n\nTrack 2\n\nFilename K:\\\\New Rips\\\\Roland Kirk - Rahsaan--Complete Mercury Recordings (1961) [FLAC]\\\\disc 5\\\\02 - Narrow Bolero.wav\n\nPeak level 68.8 %\nTrack quality 100.0 %\nTest CRC 17884A15\nCopy CRC 17884A15\nTrack not present in AccurateRip database\nCopy OK\n\nTrack 3\n\nFilename K:\\\\New Rips\\\\Roland Kirk - Rahsaan--Complete Mercury Recordings (1961) [FLAC]\\\\disc 5\\\\03 - My Heart Stood Still.wav\n\nPeak level 62.0 %\nTrack quality 100.0 %\nTest CRC A432DF1B\nCopy CRC A432DF1B\nTrack not present in AccurateRip database\nCopy OK\n\nTrack 4\n\nFilename K:\\\\New Rips\\\\Roland Kirk - Rahsaan--Complete Mercury Recordings (1961) [FLAC]\\\\disc 5\\\\04 - No Title No. 1.wav\n\nPeak level 61.6 %\nTrack quality 100.0 %\nTest CRC 58C1F25C\nCopy CRC 58C1F25C\nTrack not present in AccurateRip database\nCopy OK\n\nTrack 5\n\nFilename K:\\\\New Rips\\\\Roland Kirk - Rahsaan--Complete Mercury Recordings (1961) [FLAC]\\\\disc 5\\\\05 - Mood Indigo.wav\n\nPeak level 54.9 %\nTrack quality 100.0 %\nTest CRC 3F468536\nCopy CRC 3F468536\nTrack not present in AccurateRip database\nCopy OK\n\nTrack 6\n\nFilename K:\\\\New Rips\\\\Roland Kirk - Rahsaan--Complete Mercury Recordings (1961) [FLAC]\\\\disc 5\\\\06 - Cabin In The Sky.wav\n\nPeak level 67.6 %\nTrack quality 100.0 %\nTest CRC FDA22103\nCopy CRC FDA22103\nTrack not present in AccurateRip database\nCopy OK\n\nTrack 7\n\nFilename K:\\\\New Rips\\\\Roland Kirk - Rahsaan--Complete Mercury Recordings (1961) [FLAC]\\\\disc 5\\\\07 - On The Corner Of King And Scott Streets.wav\n\nPeak level 66.0 %\nTrack quality 100.0 %\nTest CRC F1575AA7\nCopy CRC F1575AA7\nTrack not present in AccurateRip database\nCopy OK\n\nTrack 8\n\nFilename K:\\\\New Rips\\\\Roland Kirk - Rahsaan--Complete Mercury Recordings (1961) [FLAC]\\\\disc 5\\\\08 - Untitled Blues.wav\n\nPeak level 78.0 %\nTrack quality 100.0 %\nTest CRC D193AB32\nCopy CRC D193AB32\nTrack not present in AccurateRip database\nCopy OK\n\n\nNone of the tracks are present in the AccurateRip database\n\nNo errors occurred\n\nEnd of status report\n\n------------------------------------------------------------\n\nExact Audio Copy V0.99 prebeta 3 from 28. July 2007\n\nEAC extraction logfile from 5. January 2008, 18:06\n\nRoland Kirk / Rahsaan--Complete Mercury Recordings\n\nUsed drive : TSSTcorpDVD+-RW TS-H553A Adapter: 0 ID: 2\n\nRead mode : Secure\nUtilize accurate stream : Yes\nDefeat audio cache : Yes\nMake use of C2 pointers : No\n\nRead offset correction : 6\nOverread into Lead-In and Lead-Out : No\nFill up missing offset samples with silence : Yes\nDelete leading and trailing silent blocks : No\nNull samples used in CRC calculations : Yes\nUsed interface : Native Win32 interface for Win NT &amp; 2000\nGap handling : Appended to previous track\n\nUsed output format : User Defined Encoder\nSelected bitrate : 768 kBit/s\nQuality : High\nAdd ID3 tag : No\nCommand line compressor : C:\\\\Program Files\\\\Exact Audio Copy\\\\FLAC\\\\FLAC.EXE\nAdditional command line options : -6 -V -T \\&quot;ARTIST=%a\\&quot; -T \\&quot;TITLE=%t\\&quot; -T \\&quot;ALBUM=%g\\&quot; -T \\&quot;DATE=%y\\&quot; -T \\&quot;TRACKNUMBER=%n\\&quot; -T \\&quot;GENRE=%m\\&quot; -T \\&quot;COMMENT=%e\\&quot; %s -o %d\n\n\nTOC of the extracted CD\n\nTrack | Start | Length | Start sector | End sector \n---------------------------------------------------------\n1 | 0:00.33 | 5:56.12 | 33 | 26744 \n2 | 5:56.45 | 8:40.25 | 26745 | 65769 \n3 | 14:36.70 | 3:54.13 | 65770 | 83332 \n4 | 18:31.08 | 5:21.62 | 83333 | 107469 \n5 | 23:52.70 | 8:38.50 | 107470 | 146369 \n6 | 32:31.45 | 6:52.63 | 146370 | 177332 \n7 | 39:24.33 | 12:35.00 | 177333 | 233957 \n8 | 51:59.33 | 4:54.00 | 233958 | 256007 \n\n\nTrack 1\n\nFilename K:\\\\New Rips\\\\Roland Kirk - Rahsaan--Complete Mercury Recordings (1961) [FLAC]\\\\disc 6\\\\01 - The Monkey Thing.wav\n\nPre-gap length 0:00:02.44\n\nPeak level 75.7 %\nTrack quality 100.0 %\nTest CRC BCC645BF\nCopy CRC BCC645BF\nTrack not present in AccurateRip database\nCopy OK\n\nTrack 2\n\nFilename K:\\\\New Rips\\\\Roland Kirk - Rahsaan--Complete Mercury Recordings (1961) [FLAC]\\\\disc 6\\\\02 - Will You Still Be Mine.wav\n\nPeak level 71.2 %\nTrack quality 99.9 %\nTest CRC 4C115125\nCopy CRC 4C115125\nTrack not present in AccurateRip database\nCopy OK\n\nTrack 3\n\nFilename K:\\\\New Rips\\\\Roland Kirk - Rahsaan--Complete Mercury Recordings (1961) [FLAC]\\\\disc 6\\\\03 - One For My Baby.wav\n\nPeak level 58.5 %\nTrack quality 100.0 %\nTest CRC E5E55248\nCopy CRC E5E55248\nTrack not present in AccurateRip database\nCopy OK\n\nTrack 4\n\nFilename K:\\\\New Rips\\\\Roland Kirk - Rahsaan--Complete Mercury Recordings (1961) [FLAC]\\\\disc 6\\\\04 - We\\'ll Be Together Again.wav\n\nPeak level 50.8 %\nTrack quality 100.0 %\nTest CRC CEDDDE06\nCopy CRC CEDDDE06\nTrack not present in AccurateRip database\nCopy OK\n\nTrack 5\n\nFilename K:\\\\New Rips\\\\Roland Kirk - Rahsaan--Complete Mercury Recordings (1961) [FLAC]\\\\disc 6\\\\05 - Mingus-Griff Song.wav\n\nPeak level 76.1 %\nTrack quality 99.9 %\nTest CRC D6EF245B\nCopy CRC D6EF245B\nTrack not present in AccurateRip database\nCopy OK\n\nTrack 6\n\nFilename K:\\\\New Rips\\\\Roland Kirk - Rahsaan--Complete Mercury Recordings (1961) [FLAC]\\\\disc 6\\\\06 - Mood Indigo.wav\n\nPeak level 62.7 %\nTrack quality 100.0 %\nTest CRC 702211C6\nCopy CRC 702211C6\nTrack not present in AccurateRip database\nCopy OK\n\nTrack 7\n\nFilename K:\\\\New Rips\\\\Roland Kirk - Rahsaan--Complete Mercury Recordings (1961) [FLAC]\\\\disc 6\\\\07 - Medley- Rock-a-bye Baby,Nearness Of You,No Title No. 3.wav\n\nPeak level 68.4 %\nTrack quality 100.0 %\nTest CRC 29AED683\nCopy CRC 29AED683\nTrack not present in AccurateRip database\nCopy OK\n\nTrack 8\n\nFilename K:\\\\New Rips\\\\Roland Kirk - Rahsaan--Complete Mercury Recordings (1961) [FLAC]\\\\disc 6\\\\08 - Half A Triple.wav\n\nPeak level 67.6 %\nTrack quality 100.0 %\nTest CRC 827C7612\nCopy CRC 827C7612\nTrack not present in AccurateRip database\nCopy OK\n\n\nNone of the tracks are present in the AccurateRip database\n\nNo errors occurred\n\nEnd of status report\n\n------------------------------------------------------------\n\nExact Audio Copy V0.99 prebeta 3 from 28. July 2007\n\nEAC extraction logfile from 6. January 2008, 12:40\n\nRoland Kirk / Rahsaan--Complete Mercury Recordings\n\nUsed drive : TSSTcorpDVD+-RW TS-H553A Adapter: 0 ID: 2\n\nRead mode : Secure\nUtilize accurate stream : Yes\nDefeat audio cache : Yes\nMake use of C2 pointers : No\n\nRead offset correction : 6\nOverread into Lead-In and Lead-Out : No\nFill up missing offset samples with silence : Yes\nDelete leading and trailing silent blocks : No\nNull samples used in CRC calculations : Yes\nUsed interface : Native Win32 interface for Win NT &amp; 2000\nGap handling : Appended to previous track\n\nUsed output format : User Defined Encoder\nSelected bitrate : 768 kBit/s\nQuality : High\nAdd ID3 tag : No\nCommand line compressor : C:\\\\Program Files\\\\Exact Audio Copy\\\\FLAC\\\\FLAC.EXE\nAdditional command line options : -6 -V -T \\&quot;ARTIST=%a\\&quot; -T \\&quot;TITLE=%t\\&quot; -T \\&quot;ALBUM=%g\\&quot; -T \\&quot;DATE=%y\\&quot; -T \\&quot;TRACKNUMBER=%n\\&quot; -T \\&quot;GENRE=%m\\&quot; -T \\&quot;COMMENT=%e\\&quot; %s -o %d\n\n\nTOC of the extracted CD\n\nTrack | Start | Length | Start sector | End sector \n---------------------------------------------------------\n1 | 0:00.33 | 3:05.00 | 33 | 13907 \n2 | 3:05.33 | 3:10.00 | 13908 | 28157 \n3 | 6:15.33 | 3:08.00 | 28158 | 42257 \n4 | 9:23.33 | 2:48.00 | 42258 | 54857 \n5 | 12:11.33 | 3:44.00 | 54858 | 71657 \n6 | 15:55.33 | 3:45.00 | 71658 | 88532 \n7 | 19:40.33 | 3:09.00 | 88533 | 102707 \n8 | 22:49.33 | 3:15.00 | 102708 | 117332 \n9 | 26:04.33 | 3:13.00 | 117333 | 131807 \n10 | 29:17.33 | 4:00.00 | 131808 | 149807 \n11 | 33:17.33 | 6:01.00 | 149808 | 176882 \n12 | 39:18.33 | 3:24.00 | 176883 | 192182 \n13 | 42:42.33 | 4:08.00 | 192183 | 210782 \n14 | 46:50.33 | 3:35.00 | 210783 | 226907 \n15 | 50:25.33 | 3:08.00 | 226908 | 241007 \n16 | 53:33.33 | 2:52.00 | 241008 | 253907 \n17 | 56:25.33 | 4:08.00 | 253908 | 272507 \n18 | 60:33.33 | 2:56.00 | 272508 | 285707 \n\n\nTrack 1\n\nFilename K:\\\\New Rips\\\\Roland Kirk - Rahsaan--Complete Mercury Recordings (1961) [FLAC]\\\\disc 7\\\\01 - Japan.wav\n\nPre-gap length 0:00:02.44\n\nPeak level 96.4 %\nTrack quality 100.0 %\nTest CRC C4F2131A\nCopy CRC C4F2131A\nTrack not present in AccurateRip database\nCopy OK\n\nTrack 2\n\nFilename K:\\\\New Rips\\\\Roland Kirk - Rahsaan--Complete Mercury Recordings (1961) [FLAC]\\\\disc 7\\\\02 - Japan.wav\n\nPre-gap length 0:00:02.17\n\nPeak level 96.4 %\nTrack quality 100.0 %\nTest CRC 20B2E00E\nCopy CRC 20B2E00E\nTrack not present in AccurateRip database\nCopy OK\n\nTrack 3\n\nFilename K:\\\\New Rips\\\\Roland Kirk - Rahsaan--Complete Mercury Recordings (1961) [FLAC]\\\\disc 7\\\\03 - Japan.wav\n\nPre-gap length 0:00:01.50\n\nPeak level 94.2 %\nTrack quality 100.0 %\nTest CRC 6F5F65B9\nCopy CRC 6F5F65B9\nTrack not present in AccurateRip database\nCopy OK\n\nTrack 4\n\nFilename K:\\\\New Rips\\\\Roland Kirk - Rahsaan--Complete Mercury Recordings (1961) [FLAC]\\\\disc 7\\\\04 - Berkshire Blue.wav\n\nPre-gap length 0:00:02.50\n\nPeak level 94.2 %\nTrack quality 99.9 %\nTest CRC D0E79A8B\nCopy CRC D0E79A8B\nTrack not present in AccurateRip database\nCopy OK\n\nTrack 5\n\nFilename K:\\\\New Rips\\\\Roland Kirk - Rahsaan--Complete Mercury Recordings (1961) [FLAC]\\\\disc 7\\\\05 - Dirty Money Blues.wav\n\nPre-gap length 0:00:02.17\n\nPeak level 94.2 %\nTrack quality 100.0 %\nTest CRC 12B93D96\nCopy CRC 12B93D96\nTrack not present in AccurateRip database\nCopy OK\n\nTrack 6\n\nFilename K:\\\\New Rips\\\\Roland Kirk - Rahsaan--Complete Mercury Recordings (1961) [FLAC]\\\\disc 7\\\\06 - Dirty Money Blues.wav\n\nPre-gap length 0:00:01.84\n\nPeak level 94.2 %\nTrack quality 100.0 %\nTest CRC 60F97A86\nCopy CRC 60F97A86\nTrack not present in AccurateRip database\nCopy OK\n\nTrack 7\n\nFilename K:\\\\New Rips\\\\Roland Kirk - Rahsaan--Complete Mercury Recordings (1961) [FLAC]\\\\disc 7\\\\07 - Ad Lib (Hip Chops).wav\n\nPre-gap length 0:00:01.17\n\nPeak level 94.2 %\nTrack quality 100.0 %\nTest CRC 8543E95A\nCopy CRC 8543E95A\nTrack not present in AccurateRip database\nCopy OK\n\nTrack 8\n\nFilename K:\\\\New Rips\\\\Roland Kirk - Rahsaan--Complete Mercury Recordings (1961) [FLAC]\\\\disc 7\\\\08 - The Things I Love.wav\n\nPre-gap length 0:00:01.66\n\nPeak level 84.7 %\nTrack quality 100.0 %\nTest CRC C84E1CA3\nCopy CRC C84E1CA3\nTrack not present in AccurateRip database\nCopy OK\n\nTrack 9\n\nFilename K:\\\\New Rips\\\\Roland Kirk - Rahsaan--Complete Mercury Recordings (1961) [FLAC]\\\\disc 7\\\\09 - Petite Fleur.wav\n\nPre-gap length 0:00:02.17\n\nPeak level 82.9 %\nTrack quality 100.0 %\nTest CRC E2225D28\nCopy CRC E2225D28\nTrack not present in AccurateRip database\nCopy OK\n\nTrack 10\n\nFilename K:\\\\New Rips\\\\Roland Kirk - Rahsaan--Complete Mercury Recordings (1961) [FLAC]\\\\disc 7\\\\10 - March On, Swan Lake.wav\n\nPre-gap length 0:00:02.50\n\nPeak level 81.7 %\nTrack quality 100.0 %\nTest CRC A8323484\nCopy CRC A8323484\nTrack not present in AccurateRip database\nCopy OK\n\nTrack 11\n\nFilename K:\\\\New Rips\\\\Roland Kirk - Rahsaan--Complete Mercury Recordings (1961) [FLAC]\\\\disc 7\\\\11 - Tears Sent By You.wav\n\nPre-gap length 0:00:02.50\n\nPeak level 90.6 %\nTrack quality 100.0 %\nTest CRC CC395B4F\nCopy CRC CC395B4F\nTrack not present in AccurateRip database\nCopy OK\n\nTrack 12\n\nFilename K:\\\\New Rips\\\\Roland Kirk - Rahsaan--Complete Mercury Recordings (1961) [FLAC]\\\\disc 7\\\\12 - My Heart At Thy Sweet Voice.wav\n\nPre-gap length 0:00:02.00\n\nPeak level 72.7 %\nTrack quality 100.0 %\nTest CRC 8FD7A1ED\nCopy CRC 8FD7A1ED\nTrack not present in AccurateRip database\nCopy OK\n\nTrack 13\n\nFilename K:\\\\New Rips\\\\Roland Kirk - Rahsaan--Complete Mercury Recordings (1961) [FLAC]\\\\disc 7\\\\13 - Gifts And Messages.wav\n\nPre-gap length 0:00:02.66\n\nPeak level 91.7 %\nTrack quality 100.0 %\nTest CRC E63C1F65\nCopy CRC E63C1F65\nTrack not present in AccurateRip database\nCopy OK\n\nTrack 14\n\nFilename K:\\\\New Rips\\\\Roland Kirk - Rahsaan--Complete Mercury Recordings (1961) [FLAC]\\\\disc 7\\\\14 - Hip Chops.wav\n\nPre-gap length 0:00:02.00\n\nPeak level 82.3 %\nTrack quality 100.0 %\nTest CRC 59C0DD2E\nCopy CRC 59C0DD2E\nTrack not present in AccurateRip database\nCopy OK\n\nTrack 15\n\nFilename K:\\\\New Rips\\\\Roland Kirk - Rahsaan--Complete Mercury Recordings (1961) [FLAC]\\\\disc 7\\\\15 - Blues For C &amp; T.wav\n\nPre-gap length 0:00:01.50\n\nPeak level 86.0 %\nTrack quality 100.0 %\nTest CRC EBD256FD\nCopy CRC EBD256FD\nTrack not present in AccurateRip database\nCopy OK\n\nTrack 16\n\nFilename K:\\\\New Rips\\\\Roland Kirk - Rahsaan--Complete Mercury Recordings (1961) [FLAC]\\\\disc 7\\\\16 - Where Does The Blame Lie.wav\n\nPre-gap length 0:00:01.33\n\nPeak level 88.5 %\nTrack quality 99.9 %\nTest CRC 628CC13F\nCopy CRC 628CC13F\nTrack not present in AccurateRip database\nCopy OK\n\nTrack 17\n\nFilename K:\\\\New Rips\\\\Roland Kirk - Rahsaan--Complete Mercury Recordings (1961) [FLAC]\\\\disc 7\\\\17 - Vertigo Ro.wav\n\nPre-gap length 0:00:02.17\n\nPeak level 81.8 %\nTrack quality 100.0 %\nTest CRC 547C3904\nCopy CRC 547C3904\nTrack not present in AccurateRip database\nCopy OK\n\nTrack 18\n\nFilename K:\\\\New Rips\\\\Roland Kirk - Rahsaan--Complete Mercury Recordings (1961) [FLAC]\\\\disc 7\\\\18 - Jive Elephant.wav\n\nPre-gap length 0:00:01.00\n\nPeak level 86.7 %\nTrack quality 99.9 %\nTest CRC 40A36141\nCopy CRC 40A36141\nTrack not present in AccurateRip database\nCopy OK\n\n\nNone of the tracks are present in the AccurateRip database\n\nNo errors occurred\n\nEnd of status report\n\n------------------------------------------------------------\n\nExact Audio Copy V0.99 prebeta 3 from 28. July 2007\n\nEAC extraction logfile from 6. January 2008, 19:19\n\nRoland Kirk / Rahsaan--Complete Mercury Recordings\n\nUsed drive : TSSTcorpDVD+-RW TS-H553A Adapter: 0 ID: 2\n\nRead mode : Secure\nUtilize accurate stream : Yes\nDefeat audio cache : Yes\nMake use of C2 pointers : No\n\nRead offset correction : 6\nOverread into Lead-In and Lead-Out : No\nFill up missing offset samples with silence : Yes\nDelete leading and trailing silent blocks : No\nNull samples used in CRC calculations : Yes\nUsed interface : Native Win32 interface for Win NT &amp; 2000\nGap handling : Appended to previous track\n\nUsed output format : User Defined Encoder\nSelected bitrate : 768 kBit/s\nQuality : High\nAdd ID3 tag : No\nCommand line compressor : C:\\\\Program Files\\\\Exact Audio Copy\\\\FLAC\\\\FLAC.EXE\nAdditional command line options : -6 -V -T \\&quot;ARTIST=%a\\&quot; -T \\&quot;TITLE=%t\\&quot; -T \\&quot;ALBUM=%g\\&quot; -T \\&quot;DATE=%y\\&quot; -T \\&quot;TRACKNUMBER=%n\\&quot; -T \\&quot;GENRE=%m\\&quot; -T \\&quot;COMMENT=%e\\&quot; %s -o %d\n\n\nTOC of the extracted CD\n\nTrack | Start | Length | Start sector | End sector \n---------------------------------------------------------\n1 | 0:00.33 | 3:57.00 | 33 | 17807 \n2 | 3:57.33 | 4:35.00 | 17808 | 38432 \n3 | 8:32.33 | 4:42.00 | 38433 | 59582 \n4 | 13:14.33 | 1:19.00 | 59583 | 65507 \n5 | 14:33.33 | 6:23.00 | 65508 | 94232 \n6 | 20:56.33 | 0:44.00 | 94233 | 97532 \n7 | 21:40.33 | 4:51.00 | 97533 | 119357 \n8 | 26:31.33 | 5:06.00 | 119358 | 142307 \n9 | 31:37.33 | 4:26.00 | 142308 | 162257 \n10 | 36:03.33 | 5:02.62 | 162258 | 184969 \n\n\nTrack 1\n\nFilename K:\\\\New Rips\\\\Roland Kirk - Rahsaan--Complete Mercury Recordings (1961) [FLAC]\\\\disc 8\\\\01 - I Talk With The Spirits.wav\n\nPre-gap length 0:00:02.44\n\nPeak level 64.9 %\nTrack quality 100.0 %\nTest CRC 06752656\nCopy CRC 06752656\nTrack not present in AccurateRip database\nCopy OK\n\nTrack 2\n\nFilename K:\\\\New Rips\\\\Roland Kirk - Rahsaan--Complete Mercury Recordings (1961) [FLAC]\\\\disc 8\\\\02 - Serenade To A Cuckoo.wav\n\nPre-gap length 0:00:01.66\n\nPeak level 81.2 %\nTrack quality 100.0 %\nTest CRC F727A030\nCopy CRC F727A030\nTrack not present in AccurateRip database\nCopy OK\n\nTrack 3\n\nFilename K:\\\\New Rips\\\\Roland Kirk - Rahsaan--Complete Mercury Recordings (1961) [FLAC]\\\\disc 8\\\\03 - Medley- We\\'ll Be Together Again,People From Funny Girl.wav\n\nPre-gap length 0:00:01.84\n\nPeak level 84.5 %\nTrack quality 100.0 %\nTest CRC 78D785BF\nCopy CRC 78D785BF\nTrack not present in AccurateRip database\nCopy OK\n\nTrack 4\n\nFilename K:\\\\New Rips\\\\Roland Kirk - Rahsaan--Complete Mercury Recordings (1961) [FLAC]\\\\disc 8\\\\04 - Ruined Castles.wav\n\nPre-gap length 0:00:01.33\n\nPeak level 88.7 %\nTrack quality 99.8 %\nTest CRC D89A5B90\nCopy CRC D89A5B90\nTrack not present in AccurateRip database\nCopy OK\n\nTrack 5\n\nFilename K:\\\\New Rips\\\\Roland Kirk - Rahsaan--Complete Mercury Recordings (1961) [FLAC]\\\\disc 8\\\\05 - Trees.wav\n\nPre-gap length 0:00:01.50\n\nPeak level 85.5 %\nTrack quality 100.0 %\nTest CRC 388B5FBA\nCopy CRC 388B5FBA\nTrack not present in AccurateRip database\nCopy OK\n\nTrack 6\n\nFilename K:\\\\New Rips\\\\Roland Kirk - Rahsaan--Complete Mercury Recordings (1961) [FLAC]\\\\disc 8\\\\06 - Fugue\\'n And Alludin\\'.wav\n\nPre-gap length 0:00:01.66\n\nPeak level 75.8 %\nTrack quality 100.0 %\nTest CRC 541B524B\nCopy CRC 541B524B\nTrack not present in AccurateRip database\nCopy OK\n\nTrack 7\n\nFilename K:\\\\New Rips\\\\Roland Kirk - Rahsaan--Complete Mercury Recordings (1961) [FLAC]\\\\disc 8\\\\07 - Django.wav\n\nPre-gap length 0:00:01.84\n\nPeak level 64.3 %\nTrack quality 100.0 %\nTest CRC F0B1A712\nCopy CRC F0B1A712\nTrack not present in AccurateRip database\nCopy OK\n\nTrack 8\n\nFilename K:\\\\New Rips\\\\Roland Kirk - Rahsaan--Complete Mercury Recordings (1961) [FLAC]\\\\disc 8\\\\08 - My Ship.wav\n\nPre-gap length 0:00:00.84\n\nPeak level 81.7 %\nTrack quality 100.0 %\nTest CRC 8D3F749C\nCopy CRC 8D3F749C\nTrack not present in AccurateRip database\nCopy OK\n\nTrack 9\n\nFilename K:\\\\New Rips\\\\Roland Kirk - Rahsaan--Complete Mercury Recordings (1961) [FLAC]\\\\disc 8\\\\09 - A Quote From Clifford Brown.wav\n\nPre-gap length 0:00:01.33\n\nPeak level 91.8 %\nTrack quality 100.0 %\nTest CRC 247BB69A\nCopy CRC 247BB69A\nTrack not present in AccurateRip database\nCopy OK\n\nTrack 10\n\nFilename K:\\\\New Rips\\\\Roland Kirk - Rahsaan--Complete Mercury Recordings (1961) [FLAC]\\\\disc 8\\\\10 - The Business Ain\\'t Nothin\\' But The Blues.wav\n\nPre-gap length 0:00:02.17\n\nPeak level 94.6 %\nTrack quality 99.9 %\nTest CRC 43E03052\nCopy CRC 43E03052\nTrack not present in AccurateRip database\nCopy OK\n\n\nNone of the tracks are present in the AccurateRip database\n\nNo errors occurred\n\nEnd of status report\n\n------------------------------------------------------------\n\nExact Audio Copy V0.99 prebeta 3 from 28. July 2007\n\nEAC extraction logfile from 7. January 2008, 7:23\n\nRoland Kirk / Rahsaan--Complete Mercury Recordings\n\nUsed drive : TSSTcorpDVD+-RW TS-H553A Adapter: 0 ID: 2\n\nRead mode : Secure\nUtilize accurate stream : Yes\nDefeat audio cache : Yes\nMake use of C2 pointers : No\n\nRead offset correction : 6\nOverread into Lead-In and Lead-Out : No\nFill up missing offset samples with silence : Yes\nDelete leading and trailing silent blocks : No\nNull samples used in CRC calculations : Yes\nUsed interface : Native Win32 interface for Win NT &amp; 2000\nGap handling : Appended to previous track\n\nUsed output format : User Defined Encoder\nSelected bitrate : 768 kBit/s\nQuality : High\nAdd ID3 tag : No\nCommand line compressor : C:\\\\Program Files\\\\Exact Audio Copy\\\\FLAC\\\\FLAC.EXE\nAdditional command line options : -6 -V -T \\&quot;ARTIST=%a\\&quot; -T \\&quot;TITLE=%t\\&quot; -T \\&quot;ALBUM=%g\\&quot; -T \\&quot;DATE=%y\\&quot; -T \\&quot;TRACKNUMBER=%n\\&quot; -T \\&quot;GENRE=%m\\&quot; -T \\&quot;COMMENT=%e\\&quot; %s -o %d\n\n\nTOC of the extracted CD\n\nTrack | Start | Length | Start sector | End sector \n---------------------------------------------------------\n1 | 0:00.33 | 4:35.00 | 33 | 20657 \n2 | 4:35.33 | 6:32.00 | 20658 | 50057 \n3 | 11:07.33 | 4:58.00 | 50058 | 72407 \n4 | 16:05.33 | 5:24.00 | 72408 | 96707 \n5 | 21:29.33 | 7:01.00 | 96708 | 128282 \n6 | 28:30.33 | 4:02.00 | 128283 | 146432 \n7 | 32:32.33 | 2:40.00 | 146433 | 158432 \n8 | 35:12.33 | 2:35.00 | 158433 | 170057 \n9 | 37:47.33 | 5:28.00 | 170058 | 194657 \n10 | 43:15.33 | 2:40.00 | 194658 | 206657 \n11 | 45:55.33 | 8:27.62 | 206658 | 244744 \n12 | 54:23.20 | 3:10.00 | 244745 | 258994 \n13 | 57:33.20 | 3:39.13 | 258995 | 275432 \n14 | 61:12.33 | 4:33.00 | 275433 | 295907 \n15 | 65:45.33 | 5:24.00 | 295908 | 320207 \n16 | 71:09.33 | 3:03.62 | 320208 | 333994 \n\n\nTrack 1\n\nFilename K:\\\\New Rips\\\\Roland Kirk - Rahsaan--Complete Mercury Recordings (1961) [FLAC]\\\\disc 9\\\\01 - No Tonic Press.wav\n\nPre-gap length 0:00:02.44\n\nPeak level 96.5 %\nTrack quality 99.9 %\nTest CRC CC148FEA\nCopy CRC CC148FEA\nTrack not present in AccurateRip database\nCopy OK\n\nTrack 2\n\nFilename K:\\\\New Rips\\\\Roland Kirk - Rahsaan--Complete Mercury Recordings (1961) [FLAC]\\\\disc 9\\\\02 - From Bechet, Fats and Byas.wav\n\nPre-gap length 0:00:02.50\n\nPeak level 89.2 %\nTrack quality 99.9 %\nTest CRC 9ADAA630\nCopy CRC 9ADAA630\nTrack not present in AccurateRip database\nCopy OK\n\nTrack 3\n\nFilename K:\\\\New Rips\\\\Roland Kirk - Rahsaan--Complete Mercury Recordings (1961) [FLAC]\\\\disc 9\\\\03 - Slippery, Hippery, Flippery.wav\n\nPre-gap length 0:00:02.33\n\nPeak level 81.9 %\nTrack quality 100.0 %\nTest CRC D29BE4BD\nCopy CRC D29BE4BD\nTrack not present in AccurateRip database\nCopy OK\n\nTrack 4\n\nFilename K:\\\\New Rips\\\\Roland Kirk - Rahsaan--Complete Mercury Recordings (1961) [FLAC]\\\\disc 9\\\\04 - Black Diamond.wav\n\nPre-gap length 0:00:02.00\n\nPeak level 79.8 %\nTrack quality 100.0 %\nTest CRC D4BC31F5\nCopy CRC D4BC31F5\nTrack not present in AccurateRip database\nCopy OK\n\nTrack 5\n\nFilename K:\\\\New Rips\\\\Roland Kirk - Rahsaan--Complete Mercury Recordings (1961) [FLAC]\\\\disc 9\\\\05 - Rip, Rig And Panic.wav\n\nPre-gap length 0:00:02.00\n\nPeak level 89.9 %\nTrack quality 99.9 %\nTest CRC 0AE9AC44\nCopy CRC 0AE9AC44\nTrack not present in AccurateRip database\nCopy OK\n\nTrack 6\n\nFilename K:\\\\New Rips\\\\Roland Kirk - Rahsaan--Complete Mercury Recordings (1961) [FLAC]\\\\disc 9\\\\06 - Once In A While.wav\n\nPre-gap length 0:00:02.00\n\nPeak level 89.0 %\nTrack quality 100.0 %\nTest CRC 9F27B529\nCopy CRC 9F27B529\nTrack not present in AccurateRip database\nCopy OK\n\nTrack 7\n\nFilename K:\\\\New Rips\\\\Roland Kirk - Rahsaan--Complete M","torrent":{"xt":"urn:btih:3b8c6ca3a5068c546f07a7ef2d3443225f051d9a","amp;dn":"Rahsaan+Roland+Kirk+-+Rahsaan%3A+The+Complete+Mercury+Recordings+O","amp;tr":["udp%3A%2F%2Ftracker.openbittorrent.com%3A80","udp%3A%2F%2Fopen.demonii.com%3A1337","udp%3A%2F%2Ftracker.coppersurfer.tk%3A6969","udp%3A%2F%2Fexodus.desync.com%3A6969"],"infoHash":"3b8c6ca3a5068c546f07a7ef2d3443225f051d9a","infoHashBuffer":{"type":"Buffer","data":[59,140,108,163,165,6,140,84,111,7,167,239,45,52,67,34,95,5,29,154]},"announce":[],"urlList":[]}}